  0
SECTION
  2
HEADER
  9
$ANGBASE
  50
0.0
  9
$ANGDIR
  70
1
  9
$MEASUREMENT
  70
1
  0
ENDSEC
  0
SECTION
  2
TABLES
  0
TABLE
  2
LTYPE
  70
4
  0
LTYPE
  5
40F
  2
CONTINUOUS
  70
0
  3
Solid line
  72
65
  73
0
  40
0.0
  0
LTYPE
  5
410
  2
DASHDOT
 70
0
  3
Dash Dot ____ _ ____ _
 72
65
 73
4
 40
2.0
 49
1.25
 49
-0.25
 49
0.25
 49
-0.25
  0
LTYPE
  5
411
  2
DASHED
 70
0
  3
Dashed __ __ __ __ __
 72
65
 73
2
 40
0.75
 49
0.5
 49
-0.25
  0
LTYPE
  5
43B
  2
DOTTED
 70
0
  3
Dotted .  .  .  .
 72
65
 73
2
 40
0.2
 49
0.0
 49
-0.2
  0
ENDTAB
  0
TABLE
  2
STYLE
  70
4
  0
STYLE
  2
KICAD
  70
0
  40
0
  41
1
  42
1
  50
0
  71
0
  3
isocp.shx
  0
STYLE
  2
KICADB
  70
0
  40
0
  41
1
  42
1
  50
0
  71
0
  3
isocp.shx
  0
STYLE
  2
KICADI
  70
0
  40
0
  41
1
  42
1
  50
15
  71
0
  3
isocp.shx
  0
STYLE
  2
KICADBI
  70
0
  40
0
  41
1
  42
1
  50
15
  71
0
  3
isocp.shx
  0
ENDTAB
  0
TABLE
  2
LAYER
  70
1
  0
LAYER
  2
BLACK
  70
0
  62
7
  6
CONTINUOUS
  0
ENDTAB
  0
ENDSEC
  0
SECTION
  2
ENTITIES
0
LINE
8
BLACK
6
CONTINUOUS
10
142.158
20
-135.21
11
142.059
21
-135.195
0
LINE
8
BLACK
6
CONTINUOUS
10
142.059
20
-135.195
11
141.963
21
-135.171
0
LINE
8
BLACK
6
CONTINUOUS
10
141.963
20
-135.171
11
141.869
21
-135.138
0
LINE
8
BLACK
6
CONTINUOUS
10
141.869
20
-135.138
11
141.779
21
-135.095
0
LINE
8
BLACK
6
CONTINUOUS
10
141.779
20
-135.095
11
141.694
21
-135.044
0
LINE
8
BLACK
6
CONTINUOUS
10
141.694
20
-135.044
11
141.614
21
-134.985
0
LINE
8
BLACK
6
CONTINUOUS
10
141.614
20
-134.985
11
141.54
21
-134.918
0
LINE
8
BLACK
6
CONTINUOUS
10
141.54
20
-134.918
11
141.473
21
-134.844
0
LINE
8
BLACK
6
CONTINUOUS
10
141.473
20
-134.844
11
141.414
21
-134.764
0
LINE
8
BLACK
6
CONTINUOUS
10
141.414
20
-134.764
11
141.362
21
-134.678
0
LINE
8
BLACK
6
CONTINUOUS
10
141.362
20
-134.678
11
141.32
21
-134.588
0
LINE
8
BLACK
6
CONTINUOUS
10
141.32
20
-134.588
11
141.286
21
-134.495
0
LINE
8
BLACK
6
CONTINUOUS
10
141.286
20
-134.495
11
141.262
21
-134.398
0
LINE
8
BLACK
6
CONTINUOUS
10
141.262
20
-134.398
11
141.247
21
-134.299
0
LINE
8
BLACK
6
CONTINUOUS
10
141.247
20
-134.299
11
141.242
21
-134.2
0
LINE
8
BLACK
6
CONTINUOUS
10
141.242
20
-134.2
11
141.247
21
-134.101
0
LINE
8
BLACK
6
CONTINUOUS
10
141.247
20
-134.101
11
141.262
21
-134.002
0
LINE
8
BLACK
6
CONTINUOUS
10
141.262
20
-134.002
11
141.286
21
-133.905
0
LINE
8
BLACK
6
CONTINUOUS
10
141.286
20
-133.905
11
141.32
21
-133.812
0
LINE
8
BLACK
6
CONTINUOUS
10
141.32
20
-133.812
11
141.362
21
-133.722
0
LINE
8
BLACK
6
CONTINUOUS
10
141.362
20
-133.722
11
141.414
21
-133.636
0
LINE
8
BLACK
6
CONTINUOUS
10
141.414
20
-133.636
11
141.473
21
-133.556
0
LINE
8
BLACK
6
CONTINUOUS
10
141.473
20
-133.556
11
141.54
21
-133.482
0
LINE
8
BLACK
6
CONTINUOUS
10
141.54
20
-133.482
11
141.614
21
-133.415
0
LINE
8
BLACK
6
CONTINUOUS
10
141.614
20
-133.415
11
141.694
21
-133.356
0
LINE
8
BLACK
6
CONTINUOUS
10
141.694
20
-133.356
11
141.779
21
-133.305
0
LINE
8
BLACK
6
CONTINUOUS
10
141.779
20
-133.305
11
141.869
21
-133.262
0
LINE
8
BLACK
6
CONTINUOUS
10
141.869
20
-133.262
11
141.963
21
-133.229
0
LINE
8
BLACK
6
CONTINUOUS
10
141.963
20
-133.229
11
142.059
21
-133.205
0
LINE
8
BLACK
6
CONTINUOUS
10
142.059
20
-133.205
11
142.158
21
-133.19
0
LINE
8
BLACK
6
CONTINUOUS
10
142.158
20
-133.19
11
142.257
21
-133.185
0
LINE
8
BLACK
6
CONTINUOUS
10
142.257
20
-133.185
11
154.743
21
-133.185
0
LINE
8
BLACK
6
CONTINUOUS
10
154.743
20
-133.185
11
154.842
21
-133.19
0
LINE
8
BLACK
6
CONTINUOUS
10
154.842
20
-133.19
11
154.941
21
-133.205
0
LINE
8
BLACK
6
CONTINUOUS
10
154.941
20
-133.205
11
155.037
21
-133.229
0
LINE
8
BLACK
6
CONTINUOUS
10
155.037
20
-133.229
11
155.131
21
-133.262
0
LINE
8
BLACK
6
CONTINUOUS
10
155.131
20
-133.262
11
155.221
21
-133.305
0
LINE
8
BLACK
6
CONTINUOUS
10
155.221
20
-133.305
11
155.306
21
-133.356
0
LINE
8
BLACK
6
CONTINUOUS
10
155.306
20
-133.356
11
155.386
21
-133.415
0
LINE
8
BLACK
6
CONTINUOUS
10
155.386
20
-133.415
11
155.46
21
-133.482
0
LINE
8
BLACK
6
CONTINUOUS
10
155.46
20
-133.482
11
155.527
21
-133.556
0
LINE
8
BLACK
6
CONTINUOUS
10
155.527
20
-133.556
11
155.586
21
-133.636
0
LINE
8
BLACK
6
CONTINUOUS
10
155.586
20
-133.636
11
155.638
21
-133.722
0
LINE
8
BLACK
6
CONTINUOUS
10
155.638
20
-133.722
11
155.68
21
-133.812
0
LINE
8
BLACK
6
CONTINUOUS
10
155.68
20
-133.812
11
155.714
21
-133.905
0
LINE
8
BLACK
6
CONTINUOUS
10
155.714
20
-133.905
11
155.738
21
-134.002
0
LINE
8
BLACK
6
CONTINUOUS
10
155.738
20
-134.002
11
155.753
21
-134.101
0
LINE
8
BLACK
6
CONTINUOUS
10
155.753
20
-134.101
11
155.758
21
-134.2
0
LINE
8
BLACK
6
CONTINUOUS
10
155.758
20
-134.2
11
155.753
21
-134.299
0
LINE
8
BLACK
6
CONTINUOUS
10
155.753
20
-134.299
11
155.738
21
-134.398
0
LINE
8
BLACK
6
CONTINUOUS
10
155.738
20
-134.398
11
155.714
21
-134.495
0
LINE
8
BLACK
6
CONTINUOUS
10
155.714
20
-134.495
11
155.68
21
-134.588
0
LINE
8
BLACK
6
CONTINUOUS
10
155.68
20
-134.588
11
155.638
21
-134.678
0
LINE
8
BLACK
6
CONTINUOUS
10
155.638
20
-134.678
11
155.586
21
-134.764
0
LINE
8
BLACK
6
CONTINUOUS
10
155.586
20
-134.764
11
155.527
21
-134.844
0
LINE
8
BLACK
6
CONTINUOUS
10
155.527
20
-134.844
11
155.46
21
-134.918
0
LINE
8
BLACK
6
CONTINUOUS
10
155.46
20
-134.918
11
155.386
21
-134.985
0
LINE
8
BLACK
6
CONTINUOUS
10
155.386
20
-134.985
11
155.306
21
-135.044
0
LINE
8
BLACK
6
CONTINUOUS
10
155.306
20
-135.044
11
155.221
21
-135.095
0
LINE
8
BLACK
6
CONTINUOUS
10
155.221
20
-135.095
11
155.131
21
-135.138
0
LINE
8
BLACK
6
CONTINUOUS
10
155.131
20
-135.138
11
155.037
21
-135.171
0
LINE
8
BLACK
6
CONTINUOUS
10
155.037
20
-135.171
11
154.941
21
-135.195
0
LINE
8
BLACK
6
CONTINUOUS
10
154.941
20
-135.195
11
154.842
21
-135.21
0
LINE
8
BLACK
6
CONTINUOUS
10
154.842
20
-135.21
11
154.743
21
-135.215
0
LINE
8
BLACK
6
CONTINUOUS
10
154.743
20
-135.215
11
142.257
21
-135.215
0
LINE
8
BLACK
6
CONTINUOUS
10
142.257
20
-135.215
11
142.158
21
-135.21
0
LINE
8
BLACK
6
CONTINUOUS
10
146.555
20
-133.871
11
146.585
21
-133.975
0
LINE
8
BLACK
6
CONTINUOUS
10
146.585
20
-133.975
11
146.613
21
-134.077
0
LINE
8
BLACK
6
CONTINUOUS
10
146.613
20
-134.077
11
146.642
21
-134.177
0
LINE
8
BLACK
6
CONTINUOUS
10
146.642
20
-134.177
11
146.671
21
-134.274
0
LINE
8
BLACK
6
CONTINUOUS
10
146.671
20
-134.274
11
146.702
21
-134.369
0
LINE
8
BLACK
6
CONTINUOUS
10
146.702
20
-134.369
11
146.735
21
-134.462
0
LINE
8
BLACK
6
CONTINUOUS
10
146.735
20
-134.462
11
146.771
21
-134.553
0
LINE
8
BLACK
6
CONTINUOUS
10
146.771
20
-134.553
11
146.809
21
-134.641
0
LINE
8
BLACK
6
CONTINUOUS
10
146.809
20
-134.641
11
146.869
21
-134.751
0
LINE
8
BLACK
6
CONTINUOUS
10
146.869
20
-134.751
11
146.934
21
-134.826
0
LINE
8
BLACK
6
CONTINUOUS
10
146.934
20
-134.826
11
147.013
21
-134.87
0
LINE
8
BLACK
6
CONTINUOUS
10
147.013
20
-134.87
11
147.116
21
-134.884
0
LINE
8
BLACK
6
CONTINUOUS
10
147.116
20
-134.884
11
147.205
21
-134.876
0
LINE
8
BLACK
6
CONTINUOUS
10
147.205
20
-134.876
11
147.273
21
-134.856
0
LINE
8
BLACK
6
CONTINUOUS
10
147.273
20
-134.856
11
147.236
21
-134.692
0
LINE
8
BLACK
6
CONTINUOUS
10
147.236
20
-134.692
11
147.18
21
-134.712
0
LINE
8
BLACK
6
CONTINUOUS
10
147.18
20
-134.712
11
147.127
21
-134.718
0
LINE
8
BLACK
6
CONTINUOUS
10
147.127
20
-134.718
11
147.035
21
-134.679
0
LINE
8
BLACK
6
CONTINUOUS
10
147.035
20
-134.679
11
146.979
21
-134.589
0
LINE
8
BLACK
6
CONTINUOUS
10
146.979
20
-134.589
11
147.026
21
-134.491
0
LINE
8
BLACK
6
CONTINUOUS
10
147.026
20
-134.491
11
147.072
21
-134.385
0
LINE
8
BLACK
6
CONTINUOUS
10
147.072
20
-134.385
11
147.119
21
-134.269
0
LINE
8
BLACK
6
CONTINUOUS
10
147.119
20
-134.269
11
147.153
21
-134.177
0
LINE
8
BLACK
6
CONTINUOUS
10
147.153
20
-134.177
11
147.186
21
-134.08
0
LINE
8
BLACK
6
CONTINUOUS
10
147.186
20
-134.08
11
147.217
21
-133.978
0
LINE
8
BLACK
6
CONTINUOUS
10
147.217
20
-133.978
11
147.246
21
-133.871
0
LINE
8
BLACK
6
CONTINUOUS
10
147.246
20
-133.871
11
147.043
21
-133.871
0
LINE
8
BLACK
6
CONTINUOUS
10
147.043
20
-133.871
11
147.01
21
-133.997
0
LINE
8
BLACK
6
CONTINUOUS
10
147.01
20
-133.997
11
146.991
21
-134.063
0
LINE
8
BLACK
6
CONTINUOUS
10
146.991
20
-134.063
11
146.971
21
-134.13
0
LINE
8
BLACK
6
CONTINUOUS
10
146.971
20
-134.13
11
146.95
21
-134.196
0
LINE
8
BLACK
6
CONTINUOUS
10
146.95
20
-134.196
11
146.928
21
-134.261
0
LINE
8
BLACK
6
CONTINUOUS
10
146.928
20
-134.261
11
146.881
21
-134.381
0
LINE
8
BLACK
6
CONTINUOUS
10
146.881
20
-134.381
11
146.847
21
-134.261
0
LINE
8
BLACK
6
CONTINUOUS
10
146.847
20
-134.261
11
146.83
21
-134.196
0
LINE
8
BLACK
6
CONTINUOUS
10
146.83
20
-134.196
11
146.814
21
-134.131
0
LINE
8
BLACK
6
CONTINUOUS
10
146.814
20
-134.131
11
146.798
21
-134.065
0
LINE
8
BLACK
6
CONTINUOUS
10
146.798
20
-134.065
11
146.783
21
-133.998
0
LINE
8
BLACK
6
CONTINUOUS
10
146.783
20
-133.998
11
146.755
21
-133.871
0
LINE
8
BLACK
6
CONTINUOUS
10
146.755
20
-133.871
11
146.555
21
-133.871
0
LINE
8
BLACK
6
CONTINUOUS
10
143.657
20
-133.859
11
143.589
21
-133.88
0
LINE
8
BLACK
6
CONTINUOUS
10
143.589
20
-133.88
11
143.529
21
-133.914
0
LINE
8
BLACK
6
CONTINUOUS
10
143.529
20
-133.914
11
143.478
21
-133.959
0
LINE
8
BLACK
6
CONTINUOUS
10
143.478
20
-133.959
11
143.436
21
-134.016
0
LINE
8
BLACK
6
CONTINUOUS
10
143.436
20
-134.016
11
143.406
21
-134.083
0
LINE
8
BLACK
6
CONTINUOUS
10
143.406
20
-134.083
11
143.387
21
-134.159
0
LINE
8
BLACK
6
CONTINUOUS
10
143.387
20
-134.159
11
143.38
21
-134.243
0
LINE
8
BLACK
6
CONTINUOUS
10
143.38
20
-134.243
11
143.387
21
-134.328
0
LINE
8
BLACK
6
CONTINUOUS
10
143.387
20
-134.328
11
143.406
21
-134.404
0
LINE
8
BLACK
6
CONTINUOUS
10
143.406
20
-134.404
11
143.436
21
-134.471
0
LINE
8
BLACK
6
CONTINUOUS
10
143.436
20
-134.471
11
143.477
21
-134.529
0
LINE
8
BLACK
6
CONTINUOUS
10
143.477
20
-134.529
11
143.528
21
-134.575
0
LINE
8
BLACK
6
CONTINUOUS
10
143.528
20
-134.575
11
143.587
21
-134.61
0
LINE
8
BLACK
6
CONTINUOUS
10
143.587
20
-134.61
11
143.656
21
-134.631
0
LINE
8
BLACK
6
CONTINUOUS
10
143.656
20
-134.631
11
143.731
21
-134.638
0
LINE
8
BLACK
6
CONTINUOUS
10
143.731
20
-134.638
11
143.807
21
-134.631
0
LINE
8
BLACK
6
CONTINUOUS
10
143.807
20
-134.631
11
143.875
21
-134.61
0
LINE
8
BLACK
6
CONTINUOUS
10
143.875
20
-134.61
11
143.935
21
-134.575
0
LINE
8
BLACK
6
CONTINUOUS
10
143.935
20
-134.575
11
143.986
21
-134.529
0
LINE
8
BLACK
6
CONTINUOUS
10
143.986
20
-134.529
11
144.027
21
-134.471
0
LINE
8
BLACK
6
CONTINUOUS
10
144.027
20
-134.471
11
144.058
21
-134.404
0
LINE
8
BLACK
6
CONTINUOUS
10
144.058
20
-134.404
11
144.077
21
-134.328
0
LINE
8
BLACK
6
CONTINUOUS
10
144.077
20
-134.328
11
144.084
21
-134.243
0
LINE
8
BLACK
6
CONTINUOUS
10
144.084
20
-134.243
11
144.077
21
-134.159
0
LINE
8
BLACK
6
CONTINUOUS
10
144.077
20
-134.159
11
144.057
21
-134.083
0
LINE
8
BLACK
6
CONTINUOUS
10
144.057
20
-134.083
11
144.026
21
-134.016
0
LINE
8
BLACK
6
CONTINUOUS
10
144.026
20
-134.016
11
143.984
21
-133.959
0
LINE
8
BLACK
6
CONTINUOUS
10
143.984
20
-133.959
11
143.933
21
-133.914
0
LINE
8
BLACK
6
CONTINUOUS
10
143.933
20
-133.914
11
143.872
21
-133.88
0
LINE
8
BLACK
6
CONTINUOUS
10
143.872
20
-133.88
11
143.805
21
-133.859
0
LINE
8
BLACK
6
CONTINUOUS
10
143.805
20
-133.859
11
143.731
21
-133.852
0
LINE
8
BLACK
6
CONTINUOUS
10
143.731
20
-133.852
11
143.657
21
-133.859
0
LINE
8
BLACK
6
CONTINUOUS
10
144.45
20
-133.859
11
144.383
21
-133.88
0
LINE
8
BLACK
6
CONTINUOUS
10
144.383
20
-133.88
11
144.323
21
-133.914
0
LINE
8
BLACK
6
CONTINUOUS
10
144.323
20
-133.914
11
144.272
21
-133.959
0
LINE
8
BLACK
6
CONTINUOUS
10
144.272
20
-133.959
11
144.23
21
-134.016
0
LINE
8
BLACK
6
CONTINUOUS
10
144.23
20
-134.016
11
144.199
21
-134.083
0
LINE
8
BLACK
6
CONTINUOUS
10
144.199
20
-134.083
11
144.18
21
-134.159
0
LINE
8
BLACK
6
CONTINUOUS
10
144.18
20
-134.159
11
144.174
21
-134.243
0
LINE
8
BLACK
6
CONTINUOUS
10
144.174
20
-134.243
11
144.18
21
-134.328
0
LINE
8
BLACK
6
CONTINUOUS
10
144.18
20
-134.328
11
144.199
21
-134.404
0
LINE
8
BLACK
6
CONTINUOUS
10
144.199
20
-134.404
11
144.23
21
-134.471
0
LINE
8
BLACK
6
CONTINUOUS
10
144.23
20
-134.471
11
144.271
21
-134.529
0
LINE
8
BLACK
6
CONTINUOUS
10
144.271
20
-134.529
11
144.322
21
-134.575
0
LINE
8
BLACK
6
CONTINUOUS
10
144.322
20
-134.575
11
144.381
21
-134.61
0
LINE
8
BLACK
6
CONTINUOUS
10
144.381
20
-134.61
11
144.449
21
-134.631
0
LINE
8
BLACK
6
CONTINUOUS
10
144.449
20
-134.631
11
144.525
21
-134.638
0
LINE
8
BLACK
6
CONTINUOUS
10
144.525
20
-134.638
11
144.601
21
-134.631
0
LINE
8
BLACK
6
CONTINUOUS
10
144.601
20
-134.631
11
144.669
21
-134.61
0
LINE
8
BLACK
6
CONTINUOUS
10
144.669
20
-134.61
11
144.728
21
-134.575
0
LINE
8
BLACK
6
CONTINUOUS
10
144.728
20
-134.575
11
144.78
21
-134.529
0
LINE
8
BLACK
6
CONTINUOUS
10
144.78
20
-134.529
11
144.821
21
-134.471
0
LINE
8
BLACK
6
CONTINUOUS
10
144.821
20
-134.471
11
144.852
21
-134.404
0
LINE
8
BLACK
6
CONTINUOUS
10
144.852
20
-134.404
11
144.871
21
-134.328
0
LINE
8
BLACK
6
CONTINUOUS
10
144.871
20
-134.328
11
144.877
21
-134.243
0
LINE
8
BLACK
6
CONTINUOUS
10
144.877
20
-134.243
11
144.871
21
-134.159
0
LINE
8
BLACK
6
CONTINUOUS
10
144.871
20
-134.159
11
144.851
21
-134.083
0
LINE
8
BLACK
6
CONTINUOUS
10
144.851
20
-134.083
11
144.82
21
-134.016
0
LINE
8
BLACK
6
CONTINUOUS
10
144.82
20
-134.016
11
144.778
21
-133.959
0
LINE
8
BLACK
6
CONTINUOUS
10
144.778
20
-133.959
11
144.727
21
-133.914
0
LINE
8
BLACK
6
CONTINUOUS
10
144.727
20
-133.914
11
144.666
21
-133.88
0
LINE
8
BLACK
6
CONTINUOUS
10
144.666
20
-133.88
11
144.598
21
-133.859
0
LINE
8
BLACK
6
CONTINUOUS
10
144.598
20
-133.859
11
144.525
21
-133.852
0
LINE
8
BLACK
6
CONTINUOUS
10
144.525
20
-133.852
11
144.45
21
-133.859
0
LINE
8
BLACK
6
CONTINUOUS
10
150.021
20
-134.333
11
149.996
21
-134.433
0
LINE
8
BLACK
6
CONTINUOUS
10
149.996
20
-134.433
11
149.914
21
-134.465
0
LINE
8
BLACK
6
CONTINUOUS
10
149.914
20
-134.465
11
149.849
21
-134.458
0
LINE
8
BLACK
6
CONTINUOUS
10
149.849
20
-134.458
11
149.764
21
-134.429
0
LINE
8
BLACK
6
CONTINUOUS
10
149.764
20
-134.429
11
149.738
21
-134.586
0
LINE
8
BLACK
6
CONTINUOUS
10
149.738
20
-134.586
11
149.852
21
-134.625
0
LINE
8
BLACK
6
CONTINUOUS
10
149.852
20
-134.625
11
149.949
21
-134.635
0
LINE
8
BLACK
6
CONTINUOUS
10
149.949
20
-134.635
11
150.019
21
-134.629
0
LINE
8
BLACK
6
CONTINUOUS
10
150.019
20
-134.629
11
150.077
21
-134.613
0
LINE
8
BLACK
6
CONTINUOUS
10
150.077
20
-134.613
11
150.16
21
-134.548
0
LINE
8
BLACK
6
CONTINUOUS
10
150.16
20
-134.548
11
150.203
21
-134.446
0
LINE
8
BLACK
6
CONTINUOUS
10
150.203
20
-134.446
11
150.213
21
-134.381
0
LINE
8
BLACK
6
CONTINUOUS
10
150.213
20
-134.381
11
150.216
21
-134.308
0
LINE
8
BLACK
6
CONTINUOUS
10
150.216
20
-134.308
11
150.216
21
-134.033
0
LINE
8
BLACK
6
CONTINUOUS
10
150.216
20
-134.033
11
150.422
21
-134.033
0
LINE
8
BLACK
6
CONTINUOUS
10
150.422
20
-134.033
11
150.422
21
-133.871
0
LINE
8
BLACK
6
CONTINUOUS
10
150.422
20
-133.871
11
150.021
21
-133.871
0
LINE
8
BLACK
6
CONTINUOUS
10
150.021
20
-133.871
11
150.021
21
-134.333
0
LINE
8
BLACK
6
CONTINUOUS
10
151.564
20
-133.863
11
151.481
21
-133.896
0
LINE
8
BLACK
6
CONTINUOUS
10
151.481
20
-133.896
11
151.415
21
-133.95
0
LINE
8
BLACK
6
CONTINUOUS
10
151.415
20
-133.95
11
151.367
21
-134.025
0
LINE
8
BLACK
6
CONTINUOUS
10
151.367
20
-134.025
11
151.338
21
-134.12
0
LINE
8
BLACK
6
CONTINUOUS
10
151.338
20
-134.12
11
151.329
21
-134.235
0
LINE
8
BLACK
6
CONTINUOUS
10
151.329
20
-134.235
11
151.33
21
-134.275
0
LINE
8
BLACK
6
CONTINUOUS
10
151.33
20
-134.275
11
151.332
21
-134.308
0
LINE
8
BLACK
6
CONTINUOUS
10
151.332
20
-134.308
11
151.816
21
-134.308
0
LINE
8
BLACK
6
CONTINUOUS
10
151.816
20
-134.308
11
151.801
21
-134.373
0
LINE
8
BLACK
6
CONTINUOUS
10
151.801
20
-134.373
11
151.756
21
-134.423
0
LINE
8
BLACK
6
CONTINUOUS
10
151.756
20
-134.423
11
151.687
21
-134.455
0
LINE
8
BLACK
6
CONTINUOUS
10
151.687
20
-134.455
11
151.6
21
-134.465
0
LINE
8
BLACK
6
CONTINUOUS
10
151.6
20
-134.465
11
151.488
21
-134.452
0
LINE
8
BLACK
6
CONTINUOUS
10
151.488
20
-134.452
11
151.399
21
-134.427
0
LINE
8
BLACK
6
CONTINUOUS
10
151.399
20
-134.427
11
151.372
21
-134.594
0
LINE
8
BLACK
6
CONTINUOUS
10
151.372
20
-134.594
11
151.48
21
-134.623
0
LINE
8
BLACK
6
CONTINUOUS
10
151.48
20
-134.623
11
151.608
21
-134.635
0
LINE
8
BLACK
6
CONTINUOUS
10
151.608
20
-134.635
11
151.699
21
-134.629
0
LINE
8
BLACK
6
CONTINUOUS
10
151.699
20
-134.629
11
151.779
21
-134.61
0
LINE
8
BLACK
6
CONTINUOUS
10
151.779
20
-134.61
11
151.849
21
-134.58
0
LINE
8
BLACK
6
CONTINUOUS
10
151.849
20
-134.58
11
151.908
21
-134.537
0
LINE
8
BLACK
6
CONTINUOUS
10
151.908
20
-134.537
11
151.955
21
-134.483
0
LINE
8
BLACK
6
CONTINUOUS
10
151.955
20
-134.483
11
151.989
21
-134.417
0
LINE
8
BLACK
6
CONTINUOUS
10
151.989
20
-134.417
11
152.011
21
-134.34
0
LINE
8
BLACK
6
CONTINUOUS
10
152.011
20
-134.34
11
152.018
21
-134.251
0
LINE
8
BLACK
6
CONTINUOUS
10
152.018
20
-134.251
11
152.01
21
-134.158
0
LINE
8
BLACK
6
CONTINUOUS
10
152.01
20
-134.158
11
151.988
21
-134.078
0
LINE
8
BLACK
6
CONTINUOUS
10
151.988
20
-134.078
11
151.953
21
-134.009
0
LINE
8
BLACK
6
CONTINUOUS
10
151.953
20
-134.009
11
151.908
21
-133.953
0
LINE
8
BLACK
6
CONTINUOUS
10
151.908
20
-133.953
11
151.856
21
-133.909
0
LINE
8
BLACK
6
CONTINUOUS
10
151.856
20
-133.909
11
151.796
21
-133.878
0
LINE
8
BLACK
6
CONTINUOUS
10
151.796
20
-133.878
11
151.731
21
-133.859
0
LINE
8
BLACK
6
CONTINUOUS
10
151.731
20
-133.859
11
151.665
21
-133.852
0
LINE
8
BLACK
6
CONTINUOUS
10
151.665
20
-133.852
11
151.564
21
-133.863
0
LINE
8
BLACK
6
CONTINUOUS
10
152.178
20
-134.595
11
152.238
21
-134.611
0
LINE
8
BLACK
6
CONTINUOUS
10
152.238
20
-134.611
11
152.31
21
-134.624
0
LINE
8
BLACK
6
CONTINUOUS
10
152.31
20
-134.624
11
152.387
21
-134.632
0
LINE
8
BLACK
6
CONTINUOUS
10
152.387
20
-134.632
11
152.462
21
-134.635
0
LINE
8
BLACK
6
CONTINUOUS
10
152.462
20
-134.635
11
152.569
21
-134.624
0
LINE
8
BLACK
6
CONTINUOUS
10
152.569
20
-134.624
11
152.657
21
-134.589
0
LINE
8
BLACK
6
CONTINUOUS
10
152.657
20
-134.589
11
152.727
21
-134.532
0
LINE
8
BLACK
6
CONTINUOUS
10
152.727
20
-134.532
11
152.777
21
-134.455
0
LINE
8
BLACK
6
CONTINUOUS
10
152.777
20
-134.455
11
152.806
21
-134.36
0
LINE
8
BLACK
6
CONTINUOUS
10
152.806
20
-134.36
11
152.816
21
-134.249
0
LINE
8
BLACK
6
CONTINUOUS
10
152.816
20
-134.249
11
152.808
21
-134.136
0
LINE
8
BLACK
6
CONTINUOUS
10
152.808
20
-134.136
11
152.783
21
-134.04
0
LINE
8
BLACK
6
CONTINUOUS
10
152.783
20
-134.04
11
152.741
21
-133.961
0
LINE
8
BLACK
6
CONTINUOUS
10
152.741
20
-133.961
11
152.683
21
-133.902
0
LINE
8
BLACK
6
CONTINUOUS
10
152.683
20
-133.902
11
152.608
21
-133.867
0
LINE
8
BLACK
6
CONTINUOUS
10
152.608
20
-133.867
11
152.518
21
-133.856
0
LINE
8
BLACK
6
CONTINUOUS
10
152.518
20
-133.856
11
152.44
21
-133.864
0
LINE
8
BLACK
6
CONTINUOUS
10
152.44
20
-133.864
11
152.374
21
-133.889
0
LINE
8
BLACK
6
CONTINUOUS
10
152.374
20
-133.889
11
152.374
21
-133.549
0
LINE
8
BLACK
6
CONTINUOUS
10
152.374
20
-133.549
11
152.178
21
-133.516
0
LINE
8
BLACK
6
CONTINUOUS
10
152.178
20
-133.516
11
152.178
21
-134.595
0
LINE
8
BLACK
6
CONTINUOUS
10
153.189
20
-133.858
11
153.12
21
-133.874
0
LINE
8
BLACK
6
CONTINUOUS
10
153.12
20
-133.874
11
153.023
21
-133.934
0
LINE
8
BLACK
6
CONTINUOUS
10
153.023
20
-133.934
11
152.97
21
-134.029
0
LINE
8
BLACK
6
CONTINUOUS
10
152.97
20
-134.029
11
152.955
21
-134.156
0
LINE
8
BLACK
6
CONTINUOUS
10
152.955
20
-134.156
11
152.955
21
-134.6
0
LINE
8
BLACK
6
CONTINUOUS
10
152.955
20
-134.6
11
153.082
21
-134.622
0
LINE
8
BLACK
6
CONTINUOUS
10
153.082
20
-134.622
11
153.171
21
-134.632
0
LINE
8
BLACK
6
CONTINUOUS
10
153.171
20
-134.632
11
153.27
21
-134.635
0
LINE
8
BLACK
6
CONTINUOUS
10
153.27
20
-134.635
11
153.4
21
-134.622
0
LINE
8
BLACK
6
CONTINUOUS
10
153.4
20
-134.622
11
153.499
21
-134.58
0
LINE
8
BLACK
6
CONTINUOUS
10
153.499
20
-134.58
11
153.563
21
-134.504
0
LINE
8
BLACK
6
CONTINUOUS
10
153.563
20
-134.504
11
153.585
21
-134.389
0
LINE
8
BLACK
6
CONTINUOUS
10
153.585
20
-134.389
11
153.559
21
-134.279
0
LINE
8
BLACK
6
CONTINUOUS
10
153.559
20
-134.279
11
153.491
21
-134.208
0
LINE
8
BLACK
6
CONTINUOUS
10
153.491
20
-134.208
11
153.393
21
-134.169
0
LINE
8
BLACK
6
CONTINUOUS
10
153.393
20
-134.169
11
153.277
21
-134.157
0
LINE
8
BLACK
6
CONTINUOUS
10
153.277
20
-134.157
11
153.205
21
-134.16
0
LINE
8
BLACK
6
CONTINUOUS
10
153.205
20
-134.16
11
153.142
21
-134.17
0
LINE
8
BLACK
6
CONTINUOUS
10
153.142
20
-134.17
11
153.142
21
-134.146
0
LINE
8
BLACK
6
CONTINUOUS
10
153.142
20
-134.146
11
153.177
21
-134.053
0
LINE
8
BLACK
6
CONTINUOUS
10
153.177
20
-134.053
11
153.224
21
-134.025
0
LINE
8
BLACK
6
CONTINUOUS
10
153.224
20
-134.025
11
153.297
21
-134.016
0
LINE
8
BLACK
6
CONTINUOUS
10
153.297
20
-134.016
11
153.405
21
-134.024
0
LINE
8
BLACK
6
CONTINUOUS
10
153.405
20
-134.024
11
153.488
21
-134.043
0
LINE
8
BLACK
6
CONTINUOUS
10
153.488
20
-134.043
11
153.515
21
-133.886
0
LINE
8
BLACK
6
CONTINUOUS
10
153.515
20
-133.886
11
153.412
21
-133.863
0
LINE
8
BLACK
6
CONTINUOUS
10
153.412
20
-133.863
11
153.344
21
-133.855
0
LINE
8
BLACK
6
CONTINUOUS
10
153.344
20
-133.855
11
153.274
21
-133.852
0
LINE
8
BLACK
6
CONTINUOUS
10
153.274
20
-133.852
11
153.189
21
-133.858
0
LINE
8
BLACK
6
CONTINUOUS
10
153.75
20
-133.635
11
153.739
21
-133.762
0
LINE
8
BLACK
6
CONTINUOUS
10
153.739
20
-133.762
11
153.728
21
-133.886
0
LINE
8
BLACK
6
CONTINUOUS
10
153.728
20
-133.886
11
153.719
21
-134.007
0
LINE
8
BLACK
6
CONTINUOUS
10
153.719
20
-134.007
11
153.711
21
-134.128
0
LINE
8
BLACK
6
CONTINUOUS
10
153.711
20
-134.128
11
153.704
21
-134.248
0
LINE
8
BLACK
6
CONTINUOUS
10
153.704
20
-134.248
11
153.699
21
-134.369
0
LINE
8
BLACK
6
CONTINUOUS
10
153.699
20
-134.369
11
153.695
21
-134.492
0
LINE
8
BLACK
6
CONTINUOUS
10
153.695
20
-134.492
11
153.691
21
-134.618
0
LINE
8
BLACK
6
CONTINUOUS
10
153.691
20
-134.618
11
153.871
21
-134.618
0
LINE
8
BLACK
6
CONTINUOUS
10
153.871
20
-134.618
11
153.861
21
-133.854
0
LINE
8
BLACK
6
CONTINUOUS
10
153.861
20
-133.854
11
153.982
21
-134.27
0
LINE
8
BLACK
6
CONTINUOUS
10
153.982
20
-134.27
11
154.125
21
-134.27
0
LINE
8
BLACK
6
CONTINUOUS
10
154.125
20
-134.27
11
154.24
21
-133.854
0
LINE
8
BLACK
6
CONTINUOUS
10
154.24
20
-133.854
11
154.232
21
-134.618
0
LINE
8
BLACK
6
CONTINUOUS
10
154.232
20
-134.618
11
154.412
21
-134.618
0
LINE
8
BLACK
6
CONTINUOUS
10
154.412
20
-134.618
11
154.407
21
-134.494
0
LINE
8
BLACK
6
CONTINUOUS
10
154.407
20
-134.494
11
154.402
21
-134.367
0
LINE
8
BLACK
6
CONTINUOUS
10
154.402
20
-134.367
11
154.396
21
-134.237
0
LINE
8
BLACK
6
CONTINUOUS
10
154.396
20
-134.237
11
154.39
21
-134.108
0
LINE
8
BLACK
6
CONTINUOUS
10
154.39
20
-134.108
11
154.383
21
-133.981
0
LINE
8
BLACK
6
CONTINUOUS
10
154.383
20
-133.981
11
154.375
21
-133.859
0
LINE
8
BLACK
6
CONTINUOUS
10
154.375
20
-133.859
11
154.365
21
-133.742
0
LINE
8
BLACK
6
CONTINUOUS
10
154.365
20
-133.742
11
154.355
21
-133.635
0
LINE
8
BLACK
6
CONTINUOUS
10
154.355
20
-133.635
11
154.193
21
-133.635
0
LINE
8
BLACK
6
CONTINUOUS
10
154.193
20
-133.635
11
154.165
21
-133.721
0
LINE
8
BLACK
6
CONTINUOUS
10
154.165
20
-133.721
11
154.129
21
-133.833
0
LINE
8
BLACK
6
CONTINUOUS
10
154.129
20
-133.833
11
154.091
21
-133.956
0
LINE
8
BLACK
6
CONTINUOUS
10
154.091
20
-133.956
11
154.055
21
-134.07
0
LINE
8
BLACK
6
CONTINUOUS
10
154.055
20
-134.07
11
154.015
21
-133.948
0
LINE
8
BLACK
6
CONTINUOUS
10
154.015
20
-133.948
11
153.975
21
-133.828
0
LINE
8
BLACK
6
CONTINUOUS
10
153.975
20
-133.828
11
153.94
21
-133.719
0
LINE
8
BLACK
6
CONTINUOUS
10
153.94
20
-133.719
11
153.912
21
-133.635
0
LINE
8
BLACK
6
CONTINUOUS
10
153.912
20
-133.635
11
153.75
21
-133.635
0
LINE
8
BLACK
6
CONTINUOUS
10
149.208
20
-133.862
11
149.141
21
-133.88
0
LINE
8
BLACK
6
CONTINUOUS
10
149.141
20
-133.88
11
149.048
21
-133.95
0
LINE
8
BLACK
6
CONTINUOUS
10
149.048
20
-133.95
11
149
21
-134.058
0
LINE
8
BLACK
6
CONTINUOUS
10
149
20
-134.058
11
148.989
21
-134.124
0
LINE
8
BLACK
6
CONTINUOUS
10
148.989
20
-134.124
11
148.986
21
-134.197
0
LINE
8
BLACK
6
CONTINUOUS
10
148.986
20
-134.197
11
148.986
21
-134.618
0
LINE
8
BLACK
6
CONTINUOUS
10
148.986
20
-134.618
11
149.181
21
-134.618
0
LINE
8
BLACK
6
CONTINUOUS
10
149.181
20
-134.618
11
149.181
21
-134.222
0
LINE
8
BLACK
6
CONTINUOUS
10
149.181
20
-134.222
11
149.187
21
-134.132
0
LINE
8
BLACK
6
CONTINUOUS
10
149.187
20
-134.132
11
149.205
21
-134.071
0
LINE
8
BLACK
6
CONTINUOUS
10
149.205
20
-134.071
11
149.302
21
-134.025
0
LINE
8
BLACK
6
CONTINUOUS
10
149.302
20
-134.025
11
149.345
21
-134.027
0
LINE
8
BLACK
6
CONTINUOUS
10
149.345
20
-134.027
11
149.391
21
-134.032
0
LINE
8
BLACK
6
CONTINUOUS
10
149.391
20
-134.032
11
149.391
21
-134.618
0
LINE
8
BLACK
6
CONTINUOUS
10
149.391
20
-134.618
11
149.586
21
-134.618
0
LINE
8
BLACK
6
CONTINUOUS
10
149.586
20
-134.618
11
149.586
21
-133.895
0
LINE
8
BLACK
6
CONTINUOUS
10
149.586
20
-133.895
11
149.527
21
-133.881
0
LINE
8
BLACK
6
CONTINUOUS
10
149.527
20
-133.881
11
149.456
21
-133.868
0
LINE
8
BLACK
6
CONTINUOUS
10
149.456
20
-133.868
11
149.376
21
-133.859
0
LINE
8
BLACK
6
CONTINUOUS
10
149.376
20
-133.859
11
149.289
21
-133.856
0
LINE
8
BLACK
6
CONTINUOUS
10
149.289
20
-133.856
11
149.208
21
-133.862
0
LINE
8
BLACK
6
CONTINUOUS
10
147.4
20
-133.635
11
147.389
21
-133.762
0
LINE
8
BLACK
6
CONTINUOUS
10
147.389
20
-133.762
11
147.378
21
-133.886
0
LINE
8
BLACK
6
CONTINUOUS
10
147.378
20
-133.886
11
147.369
21
-134.007
0
LINE
8
BLACK
6
CONTINUOUS
10
147.369
20
-134.007
11
147.361
21
-134.128
0
LINE
8
BLACK
6
CONTINUOUS
10
147.361
20
-134.128
11
147.354
21
-134.248
0
LINE
8
BLACK
6
CONTINUOUS
10
147.354
20
-134.248
11
147.349
21
-134.369
0
LINE
8
BLACK
6
CONTINUOUS
10
147.349
20
-134.369
11
147.345
21
-134.492
0
LINE
8
BLACK
6
CONTINUOUS
10
147.345
20
-134.492
11
147.341
21
-134.618
0
LINE
8
BLACK
6
CONTINUOUS
10
147.341
20
-134.618
11
147.521
21
-134.618
0
LINE
8
BLACK
6
CONTINUOUS
10
147.521
20
-134.618
11
147.511
21
-133.854
0
LINE
8
BLACK
6
CONTINUOUS
10
147.511
20
-133.854
11
147.632
21
-134.27
0
LINE
8
BLACK
6
CONTINUOUS
10
147.632
20
-134.27
11
147.775
21
-134.27
0
LINE
8
BLACK
6
CONTINUOUS
10
147.775
20
-134.27
11
147.89
21
-133.854
0
LINE
8
BLACK
6
CONTINUOUS
10
147.89
20
-133.854
11
147.882
21
-134.618
0
LINE
8
BLACK
6
CONTINUOUS
10
147.882
20
-134.618
11
148.062
21
-134.618
0
LINE
8
BLACK
6
CONTINUOUS
10
148.062
20
-134.618
11
148.057
21
-134.494
0
LINE
8
BLACK
6
CONTINUOUS
10
148.057
20
-134.494
11
148.052
21
-134.367
0
LINE
8
BLACK
6
CONTINUOUS
10
148.052
20
-134.367
11
148.046
21
-134.237
0
LINE
8
BLACK
6
CONTINUOUS
10
148.046
20
-134.237
11
148.04
21
-134.108
0
LINE
8
BLACK
6
CONTINUOUS
10
148.04
20
-134.108
11
148.033
21
-133.981
0
LINE
8
BLACK
6
CONTINUOUS
10
148.033
20
-133.981
11
148.025
21
-133.859
0
LINE
8
BLACK
6
CONTINUOUS
10
148.025
20
-133.859
11
148.015
21
-133.742
0
LINE
8
BLACK
6
CONTINUOUS
10
148.015
20
-133.742
11
148.005
21
-133.635
0
LINE
8
BLACK
6
CONTINUOUS
10
148.005
20
-133.635
11
147.843
21
-133.635
0
LINE
8
BLACK
6
CONTINUOUS
10
147.843
20
-133.635
11
147.815
21
-133.721
0
LINE
8
BLACK
6
CONTINUOUS
10
147.815
20
-133.721
11
147.779
21
-133.833
0
LINE
8
BLACK
6
CONTINUOUS
10
147.779
20
-133.833
11
147.741
21
-133.956
0
LINE
8
BLACK
6
CONTINUOUS
10
147.741
20
-133.956
11
147.705
21
-134.07
0
LINE
8
BLACK
6
CONTINUOUS
10
147.705
20
-134.07
11
147.665
21
-133.948
0
LINE
8
BLACK
6
CONTINUOUS
10
147.665
20
-133.948
11
147.625
21
-133.828
0
LINE
8
BLACK
6
CONTINUOUS
10
147.625
20
-133.828
11
147.59
21
-133.719
0
LINE
8
BLACK
6
CONTINUOUS
10
147.59
20
-133.719
11
147.562
21
-133.635
0
LINE
8
BLACK
6
CONTINUOUS
10
147.562
20
-133.635
11
147.4
21
-133.635
0
LINE
8
BLACK
6
CONTINUOUS
10
145.297
20
-133.629
11
145.225
21
-133.643
0
LINE
8
BLACK
6
CONTINUOUS
10
145.225
20
-133.643
11
145.161
21
-133.667
0
LINE
8
BLACK
6
CONTINUOUS
10
145.161
20
-133.667
11
145.108
21
-133.702
0
LINE
8
BLACK
6
CONTINUOUS
10
145.108
20
-133.702
11
145.032
21
-133.802
0
LINE
8
BLACK
6
CONTINUOUS
10
145.032
20
-133.802
11
145.012
21
-133.869
0
LINE
8
BLACK
6
CONTINUOUS
10
145.012
20
-133.869
11
145.006
21
-133.946
0
LINE
8
BLACK
6
CONTINUOUS
10
145.006
20
-133.946
11
145.015
21
-134.028
0
LINE
8
BLACK
6
CONTINUOUS
10
145.015
20
-134.028
11
145.041
21
-134.102
0
LINE
8
BLACK
6
CONTINUOUS
10
145.041
20
-134.102
11
145.087
21
-134.163
0
LINE
8
BLACK
6
CONTINUOUS
10
145.087
20
-134.163
11
145.157
21
-134.208
0
LINE
8
BLACK
6
CONTINUOUS
10
145.157
20
-134.208
11
145.1
21
-134.299
0
LINE
8
BLACK
6
CONTINUOUS
10
145.1
20
-134.299
11
145.041
21
-134.404
0
LINE
8
BLACK
6
CONTINUOUS
10
145.041
20
-134.404
11
144.986
21
-134.514
0
LINE
8
BLACK
6
CONTINUOUS
10
144.986
20
-134.514
11
144.941
21
-134.618
0
LINE
8
BLACK
6
CONTINUOUS
10
144.941
20
-134.618
11
145.146
21
-134.618
0
LINE
8
BLACK
6
CONTINUOUS
10
145.146
20
-134.618
11
145.185
21
-134.524
0
LINE
8
BLACK
6
CONTINUOUS
10
145.185
20
-134.524
11
145.231
21
-134.434
0
LINE
8
BLACK
6
CONTINUOUS
10
145.231
20
-134.434
11
145.281
21
-134.345
0
LINE
8
BLACK
6
CONTINUOUS
10
145.281
20
-134.345
11
145.335
21
-134.256
0
LINE
8
BLACK
6
CONTINUOUS
10
145.335
20
-134.256
11
145.436
21
-134.256
0
LINE
8
BLACK
6
CONTINUOUS
10
145.436
20
-134.256
11
145.436
21
-134.618
0
LINE
8
BLACK
6
CONTINUOUS
10
145.436
20
-134.618
11
145.631
21
-134.618
0
LINE
8
BLACK
6
CONTINUOUS
10
145.631
20
-134.618
11
145.631
21
-133.649
0
LINE
8
BLACK
6
CONTINUOUS
10
145.631
20
-133.649
11
145.569
21
-133.637
0
LINE
8
BLACK
6
CONTINUOUS
10
145.569
20
-133.637
11
145.5
21
-133.629
0
LINE
8
BLACK
6
CONTINUOUS
10
145.5
20
-133.629
11
145.433
21
-133.625
0
LINE
8
BLACK
6
CONTINUOUS
10
145.433
20
-133.625
11
145.377
21
-133.624
0
LINE
8
BLACK
6
CONTINUOUS
10
145.377
20
-133.624
11
145.297
21
-133.629
0
LINE
8
BLACK
6
CONTINUOUS
10
142.987
20
-133.874
11
142.931
21
-133.908
0
LINE
8
BLACK
6
CONTINUOUS
10
142.931
20
-133.908
11
142.868
21
-133.877
0
LINE
8
BLACK
6
CONTINUOUS
10
142.868
20
-133.877
11
142.791
21
-133.863
0
LINE
8
BLACK
6
CONTINUOUS
10
142.791
20
-133.863
11
142.69
21
-133.882
0
LINE
8
BLACK
6
CONTINUOUS
10
142.69
20
-133.882
11
142.627
21
-133.94
0
LINE
8
BLACK
6
CONTINUOUS
10
142.627
20
-133.94
11
142.596
21
-134.036
0
LINE
8
BLACK
6
CONTINUOUS
10
142.596
20
-134.036
11
142.59
21
-134.099
0
LINE
8
BLACK
6
CONTINUOUS
10
142.59
20
-134.099
11
142.588
21
-134.171
0
LINE
8
BLACK
6
CONTINUOUS
10
142.588
20
-134.171
11
142.588
21
-134.618
0
LINE
8
BLACK
6
CONTINUOUS
10
142.588
20
-134.618
11
142.747
21
-134.618
0
LINE
8
BLACK
6
CONTINUOUS
10
142.747
20
-134.618
11
142.747
21
-134.162
0
LINE
8
BLACK
6
CONTINUOUS
10
142.747
20
-134.162
11
142.752
21
-134.09
0
LINE
8
BLACK
6
CONTINUOUS
10
142.752
20
-134.09
11
142.767
21
-134.049
0
LINE
8
BLACK
6
CONTINUOUS
10
142.767
20
-134.049
11
142.787
21
-134.03
0
LINE
8
BLACK
6
CONTINUOUS
10
142.787
20
-134.03
11
142.812
21
-134.025
0
LINE
8
BLACK
6
CONTINUOUS
10
142.812
20
-134.025
11
142.842
21
-134.028
0
LINE
8
BLACK
6
CONTINUOUS
10
142.842
20
-134.028
11
142.871
21
-134.036
0
LINE
8
BLACK
6
CONTINUOUS
10
142.871
20
-134.036
11
142.863
21
-134.103
0
LINE
8
BLACK
6
CONTINUOUS
10
142.863
20
-134.103
11
142.86
21
-134.184
0
LINE
8
BLACK
6
CONTINUOUS
10
142.86
20
-134.184
11
142.86
21
-134.333
0
LINE
8
BLACK
6
CONTINUOUS
10
142.86
20
-134.333
11
143.018
21
-134.333
0
LINE
8
BLACK
6
CONTINUOUS
10
143.018
20
-134.333
11
143.018
21
-134.162
0
LINE
8
BLACK
6
CONTINUOUS
10
143.018
20
-134.162
11
143.033
21
-134.056
0
LINE
8
BLACK
6
CONTINUOUS
10
143.033
20
-134.056
11
143.082
21
-134.025
0
LINE
8
BLACK
6
CONTINUOUS
10
143.082
20
-134.025
11
143.105
21
-134.027
0
LINE
8
BLACK
6
CONTINUOUS
10
143.105
20
-134.027
11
143.131
21
-134.032
0
LINE
8
BLACK
6
CONTINUOUS
10
143.131
20
-134.032
11
143.131
21
-134.618
0
LINE
8
BLACK
6
CONTINUOUS
10
143.131
20
-134.618
11
143.29
21
-134.618
0
LINE
8
BLACK
6
CONTINUOUS
10
143.29
20
-134.618
11
143.29
21
-133.9
0
LINE
8
BLACK
6
CONTINUOUS
10
143.29
20
-133.9
11
143.168
21
-133.873
0
LINE
8
BLACK
6
CONTINUOUS
10
143.168
20
-133.873
11
143.061
21
-133.863
0
LINE
8
BLACK
6
CONTINUOUS
10
143.061
20
-133.863
11
142.987
21
-133.874
0
LINE
8
BLACK
6
CONTINUOUS
10
150.065
20
-133.565
11
150.029
21
-133.657
0
LINE
8
BLACK
6
CONTINUOUS
10
150.029
20
-133.657
11
150.065
21
-133.748
0
LINE
8
BLACK
6
CONTINUOUS
10
150.065
20
-133.748
11
150.153
21
-133.781
0
LINE
8
BLACK
6
CONTINUOUS
10
150.153
20
-133.781
11
150.239
21
-133.748
0
LINE
8
BLACK
6
CONTINUOUS
10
150.239
20
-133.748
11
150.275
21
-133.657
0
LINE
8
BLACK
6
CONTINUOUS
10
150.275
20
-133.657
11
150.239
21
-133.565
0
LINE
8
BLACK
6
CONTINUOUS
10
150.239
20
-133.565
11
150.153
21
-133.532
0
LINE
8
BLACK
6
CONTINUOUS
10
150.153
20
-133.532
11
150.065
21
-133.565
0
LINE
8
BLACK
6
CONTINUOUS
10
143.798
20
-134.037
11
143.846
21
-134.083
0
LINE
8
BLACK
6
CONTINUOUS
10
143.846
20
-134.083
11
143.875
21
-134.154
0
LINE
8
BLACK
6
CONTINUOUS
10
143.875
20
-134.154
11
143.885
21
-134.244
0
LINE
8
BLACK
6
CONTINUOUS
10
143.885
20
-134.244
11
143.876
21
-134.335
0
LINE
8
BLACK
6
CONTINUOUS
10
143.876
20
-134.335
11
143.849
21
-134.406
0
LINE
8
BLACK
6
CONTINUOUS
10
143.849
20
-134.406
11
143.803
21
-134.453
0
LINE
8
BLACK
6
CONTINUOUS
10
143.803
20
-134.453
11
143.734
21
-134.468
0
LINE
8
BLACK
6
CONTINUOUS
10
143.734
20
-134.468
11
143.667
21
-134.453
0
LINE
8
BLACK
6
CONTINUOUS
10
143.667
20
-134.453
11
143.619
21
-134.406
0
LINE
8
BLACK
6
CONTINUOUS
10
143.619
20
-134.406
11
143.59
21
-134.335
0
LINE
8
BLACK
6
CONTINUOUS
10
143.59
20
-134.335
11
143.58
21
-134.244
0
LINE
8
BLACK
6
CONTINUOUS
10
143.58
20
-134.244
11
143.589
21
-134.154
0
LINE
8
BLACK
6
CONTINUOUS
10
143.589
20
-134.154
11
143.616
21
-134.083
0
LINE
8
BLACK
6
CONTINUOUS
10
143.616
20
-134.083
11
143.663
21
-134.037
0
LINE
8
BLACK
6
CONTINUOUS
10
143.663
20
-134.037
11
143.731
21
-134.022
0
LINE
8
BLACK
6
CONTINUOUS
10
143.731
20
-134.022
11
143.798
21
-134.037
0
LINE
8
BLACK
6
CONTINUOUS
10
144.592
20
-134.037
11
144.64
21
-134.083
0
LINE
8
BLACK
6
CONTINUOUS
10
144.64
20
-134.083
11
144.669
21
-134.154
0
LINE
8
BLACK
6
CONTINUOUS
10
144.669
20
-134.154
11
144.679
21
-134.244
0
LINE
8
BLACK
6
CONTINUOUS
10
144.679
20
-134.244
11
144.67
21
-134.335
0
LINE
8
BLACK
6
CONTINUOUS
10
144.67
20
-134.335
11
144.643
21
-134.406
0
LINE
8
BLACK
6
CONTINUOUS
10
144.643
20
-134.406
11
144.597
21
-134.453
0
LINE
8
BLACK
6
CONTINUOUS
10
144.597
20
-134.453
11
144.528
21
-134.468
0
LINE
8
BLACK
6
CONTINUOUS
10
144.528
20
-134.468
11
144.461
21
-134.453
0
LINE
8
BLACK
6
CONTINUOUS
10
144.461
20
-134.453
11
144.413
21
-134.406
0
LINE
8
BLACK
6
CONTINUOUS
10
144.413
20
-134.406
11
144.384
21
-134.335
0
LINE
8
BLACK
6
CONTINUOUS
10
144.384
20
-134.335
11
144.374
21
-134.244
0
LINE
8
BLACK
6
CONTINUOUS
10
144.374
20
-134.244
11
144.383
21
-134.154
0
LINE
8
BLACK
6
CONTINUOUS
10
144.383
20
-134.154
11
144.41
21
-134.083
0
LINE
8
BLACK
6
CONTINUOUS
10
144.41
20
-134.083
11
144.456
21
-134.037
0
LINE
8
BLACK
6
CONTINUOUS
10
144.456
20
-134.037
11
144.525
21
-134.022
0
LINE
8
BLACK
6
CONTINUOUS
10
144.525
20
-134.022
11
144.592
21
-134.037
0
LINE
8
BLACK
6
CONTINUOUS
10
151.728
20
-134.029
11
151.774
21
-134.063
0
LINE
8
BLACK
6
CONTINUOUS
10
151.774
20
-134.063
11
151.803
21
-134.114
0
LINE
8
BLACK
6
CONTINUOUS
10
151.803
20
-134.114
11
151.816
21
-134.173
0
LINE
8
BLACK
6
CONTINUOUS
10
151.816
20
-134.173
11
151.518
21
-134.173
0
LINE
8
BLACK
6
CONTINUOUS
10
151.518
20
-134.173
11
151.526
21
-134.115
0
LINE
8
BLACK
6
CONTINUOUS
10
151.526
20
-134.115
11
151.551
21
-134.065
0
LINE
8
BLACK
6
CONTINUOUS
10
151.551
20
-134.065
11
151.596
21
-134.029
0
LINE
8
BLACK
6
CONTINUOUS
10
151.596
20
-134.029
11
151.662
21
-134.016
0
LINE
8
BLACK
6
CONTINUOUS
10
151.662
20
-134.016
11
151.728
21
-134.029
0
LINE
8
BLACK
6
CONTINUOUS
10
152.545
20
-134.038
11
152.586
21
-134.079
0
LINE
8
BLACK
6
CONTINUOUS
10
152.586
20
-134.079
11
152.61
21
-134.147
0
LINE
8
BLACK
6
CONTINUOUS
10
152.61
20
-134.147
11
152.618
21
-134.24
0
LINE
8
BLACK
6
CONTINUOUS
10
152.618
20
-134.24
11
152.609
21
-134.331
0
LINE
8
BLACK
6
CONTINUOUS
10
152.609
20
-134.331
11
152.581
21
-134.403
0
LINE
8
BLACK
6
CONTINUOUS
10
152.581
20
-134.403
11
152.532
21
-134.451
0
LINE
8
BLACK
6
CONTINUOUS
10
152.532
20
-134.451
11
152.461
21
-134.467
0
LINE
8
BLACK
6
CONTINUOUS
10
152.461
20
-134.467
11
152.416
21
-134.465
0
LINE
8
BLACK
6
CONTINUOUS
10
152.416
20
-134.465
11
152.374
21
-134.46
0
LINE
8
BLACK
6
CONTINUOUS
10
152.374
20
-134.46
11
152.374
21
-134.054
0
LINE
8
BLACK
6
CONTINUOUS
10
152.374
20
-134.054
11
152.424
21
-134.033
0
LINE
8
BLACK
6
CONTINUOUS
10
152.424
20
-134.033
11
152.485
21
-134.024
0
LINE
8
BLACK
6
CONTINUOUS
10
152.485
20
-134.024
11
152.545
21
-134.038
0
LINE
8
BLACK
6
CONTINUOUS
10
153.296
20
-134.298
11
153.346
21
-134.311
0
LINE
8
BLACK
6
CONTINUOUS
10
153.346
20
-134.311
11
153.38
21
-134.338
0
LINE
8
BLACK
6
CONTINUOUS
10
153.38
20
-134.338
11
153.393
21
-134.384
0
LINE
8
BLACK
6
CONTINUOUS
10
153.393
20
-134.384
11
153.355
21
-134.456
0
LINE
8
BLACK
6
CONTINUOUS
10
153.355
20
-134.456
11
153.256
21
-134.478
0
LINE
8
BLACK
6
CONTINUOUS
10
153.256
20
-134.478
11
153.194
21
-134.477
0
LINE
8
BLACK
6
CONTINUOUS
10
153.194
20
-134.477
11
153.142
21
-134.473
0
LINE
8
BLACK
6
CONTINUOUS
10
153.142
20
-134.473
11
153.142
21
-134.302
0
LINE
8
BLACK
6
CONTINUOUS
10
153.142
20
-134.302
11
153.188
21
-134.296
0
LINE
8
BLACK
6
CONTINUOUS
10
153.188
20
-134.296
11
153.237
21
-134.294
0
LINE
8
BLACK
6
CONTINUOUS
10
153.237
20
-134.294
11
153.296
21
-134.298
0
LINE
8
BLACK
6
CONTINUOUS
10
145.404
20
-133.794
11
145.436
21
-133.798
0
LINE
8
BLACK
6
CONTINUOUS
10
145.436
20
-133.798
11
145.436
21
-134.094
0
LINE
8
BLACK
6
CONTINUOUS
10
145.436
20
-134.094
11
145.393
21
-134.094
0
LINE
8
BLACK
6
CONTINUOUS
10
145.393
20
-134.094
11
145.307
21
-134.084
0
LINE
8
BLACK
6
CONTINUOUS
10
145.307
20
-134.084
11
145.249
21
-134.055
0
LINE
8
BLACK
6
CONTINUOUS
10
145.249
20
-134.055
11
145.204
21
-133.944
0
LINE
8
BLACK
6
CONTINUOUS
10
145.204
20
-133.944
11
145.216
21
-133.877
0
LINE
8
BLACK
6
CONTINUOUS
10
145.216
20
-133.877
11
145.252
21
-133.83
0
LINE
8
BLACK
6
CONTINUOUS
10
145.252
20
-133.83
11
145.307
21
-133.803
0
LINE
8
BLACK
6
CONTINUOUS
10
145.307
20
-133.803
11
145.377
21
-133.794
0
LINE
8
BLACK
6
CONTINUOUS
10
145.377
20
-133.794
11
145.404
21
-133.794
  0
ENDSEC
  0
EOF
